<svg xmlns="http://www.w3.org/2000/svg" viewBox="0 0 17.7 5.75"><g fill="#fff"><path d="M4.63 0a.38.38 0 01.38.38v5a.38.38 0 01-.38.39h-.37a.62.62 0 01-.47-.23L1.26 2.3v3.07a.38.38 0 01-.41.4H.38a.38.38 0 01-.38-.4v-5a.38.38 0 01.38-.38h.38a.62.62 0 01.5.24l2.52 3.23V.38A.38.38 0 014.16 0zM9.56 5.37a.38.38 0 01-.38.4H6.45a.38.38 0 01-.38-.38v-5a.38.38 0 01.38-.38H9.1a.38.38 0 01.38.38v.48a.38.38 0 01-.38.38H7.38v1h1.47a.38.38 0 01.38.38v.48a.38.38 0 01-.38.38H7.38v1h1.8a.38.38 0 01.38.38zM10.73 0a.5.5 0 01.48.37l.87 3.26 1-3.27a.51.51 0 01.48-.36h.57a.52.52 0 01.49.36l1 3.27.89-3.26a.5.5 0 01.48-.37h.27a.41.41 0 01.4.41.51.51 0 010 .11l-1.34 4.85a.52.52 0 01-.48.37h-.58a.41.41 0 01-.38-.28l-1.12-3.41-1.09 3.41a.41.41 0 01-.41.31h-.59a.51.51 0 01-.41-.39L9.78.51a.32.32 0 010-.12.39.39 0 01.39-.39z"/></g></svg>